<svg width="600" height="698" viewBox="0 0 600 698" fill="none" xmlns="http://www.w3.org/2000/svg">
<path fill-rule="evenodd" clip-rule="evenodd" d="M0.190934 655.991H600L600 651.477L0.191693 651.477L0.190934 655.991ZM472.491 697.895H476.349L476.348 671.919L472.49 671.918L472.491 697.895ZM114.928 675.425L125.566 675.425L125.567 697.847L129.437 697.895C129.436 692.835 129.226 679.591 129.467 675.45L140.124 675.425L140.124 671.918H114.928L114.928 675.425ZM582.861 675.014L588.991 688.18L576.553 688.137L582.861 675.014ZM574.892 691.497L590.416 691.495C591.124 691.828 591.759 693.899 592.135 694.653C592.543 695.47 593.347 697.086 593.603 697.896L597.88 697.883L584.916 671.916L580.82 671.909L568.146 697.879L571.937 697.875L574.892 691.497ZM230.922 671.946C230.704 673.534 230.869 688.212 230.873 691.127C230.876 694.296 230.988 696.904 233.949 697.636C235.75 698.082 250.758 698.083 252.556 697.624C255.406 696.896 255.535 694.344 255.538 691.127C255.544 684.724 255.53 678.321 255.538 671.918L251.712 671.919L251.682 694.274L234.79 694.256C234.375 691.336 235.174 674.029 234.638 671.914L230.922 671.946ZM351.852 697.896C356.694 697.89 366.909 698.413 370.932 697.159C380.952 694.037 380.97 675.683 370.877 672.629C366.749 671.38 356.804 671.93 351.856 671.916L351.852 697.896ZM4.44856 675.425L20.8656 675.425L20.8846 679.202L24.1999 678.08C24.1627 670.9 20.8292 671.917 14.4377 671.917C11.7316 671.917 9.01119 671.889 6.30707 671.917C3.68868 671.945 1.9254 672.421 1.29262 674.773C0.815752 676.546 0.829413 680.446 1.04982 682.335C1.36166 685.003 2.30134 686.081 4.95691 686.383C8.91787 686.833 17.6759 686.065 20.9643 686.503L20.9279 694.275L3.64393 694.258L3.61585 690.1L0.0900162 691.001C-0.686167 698.768 3.64013 697.895 9.8663 697.895C12.6319 697.895 15.3971 697.893 18.1623 697.896C20.896 697.898 23.1324 697.804 23.9954 695.43C24.613 693.732 24.5614 689.546 24.4332 687.567C24.2511 684.753 23.5182 683.252 20.8797 682.824C18.9593 682.512 7.28357 682.684 4.39318 682.684L4.44856 675.425ZM355.724 694.277C365.861 694.282 374.378 695.992 374.458 684.865C374.538 673.663 365.427 675.421 355.768 675.425L355.724 694.277ZM332.043 642.404L340.672 642.383L340.653 590.965L332.062 590.964L332.044 591.618V613.111L332.043 642.404ZM111.192 597.891L134.723 597.895L134.723 642.393L143.34 642.401L143.351 597.937L166.872 597.894L166.845 590.963L111.192 591.031V597.891ZM22.2427 623.095C22.5887 622.1 23.4632 620.761 23.9503 619.741L34.1712 600.17C34.4857 599.589 34.7387 599.118 35.0562 598.525C35.3161 598.041 35.5718 597.319 35.9819 597.012L49.7483 623.115L22.2427 623.095ZM12.0844 642.396C12.5932 640.806 14.4957 637.546 15.3557 635.864C15.9263 634.747 16.4574 633.705 17.0143 632.617C17.586 631.499 18.1221 629.71 18.8394 629.71L53.3565 629.724L59.9066 642.402L69.365 642.404L44.3837 597.396C43.7946 596.313 43.1921 595.299 42.5719 594.128C42.0392 593.124 41.2615 591.953 40.8317 590.968L31.876 590.964C31.2535 590.964 31.1123 591.736 30.7542 592.359L28.121 597.173C27.0061 599.351 25.7796 601.576 24.5903 603.627C22.1392 607.855 19.9992 612.249 17.5325 616.541L3.46258 642.379L12.0844 642.396ZM404.681 590.963C404.512 594.141 404.657 597.706 404.656 600.926L404.658 630.373C404.748 643.234 410.675 642.399 422.126 642.402C427.309 642.404 447.906 642.672 451.452 642.098C458.178 641.007 459.118 636.749 459.158 630.204C459.199 623.665 459.16 617.113 459.16 610.572C459.16 604.163 459.379 597.362 459.144 590.968L450.708 590.964L450.707 635.301L413.278 635.302L413.263 590.968L404.681 590.963ZM556.414 634.274C556.67 633.659 557.377 632.782 557.821 632.149C558.31 631.453 558.754 630.754 559.262 630.032C560.228 628.66 561.224 627.24 562.166 625.831L576.61 604.723C577.457 603.457 578.259 601.237 579.024 600.259C579.097 601.984 578.917 603.674 578.792 605.368C578.665 607.094 578.707 608.841 578.707 610.572V642.405L586.482 642.361L586.468 590.967L578.688 590.964C573.071 599.259 566.833 607.752 561.206 616.069L555.364 624.4C554.847 624.026 552.691 620.945 552.15 620.221L530.306 590.964L523.344 590.963L523.344 642.405L530.614 642.361C530.581 635.321 530.614 628.275 530.611 621.234C530.61 616.389 530.735 610.056 530.59 605.322C530.546 603.885 530.202 601.804 530.365 600.467C531.234 602.58 531.648 603.52 532.809 605.197C535.855 609.599 538.787 613.408 541.939 617.737C542.976 619.162 543.993 620.58 545.028 621.927L551.218 630.29C554.563 634.892 553.592 634.281 556.414 634.274ZM227.37 597.726C234.724 597.719 242.08 597.728 249.434 597.725C262.404 597.721 262.413 596.845 262.412 606.68C262.411 610.333 263.072 614.039 260.019 615.232C258.188 615.948 251.834 615.672 249.434 615.672C242.072 615.672 234.71 615.683 227.347 615.671L227.37 597.726ZM252.677 622.459C261.03 621.97 269.376 624.091 270.84 615.034C271.361 611.811 271.027 605.987 271.029 602.449C271.033 591.863 267.114 590.964 257.053 590.964H218.731L218.731 642.407L227.347 642.321L227.369 622.433C230.266 622.435 233.163 622.433 236.059 622.433C244.332 622.434 241.424 621.67 245.837 625.676L250.197 629.781C251.289 630.759 262.971 642.141 263.399 642.308C263.987 642.538 275.134 642.439 275.987 642.362C274.199 640.58 264.139 632.273 261.389 629.928L255.541 624.946C254.597 624.081 253.593 623.388 252.677 622.459Z" fill="black"/>
<path d="M304.825 225.114C293.214 225.688 281.558 226.126 269.863 226.427C258.528 226.719 247.174 226.881 235.808 226.911L233.547 246.221C233.953 246.388 234.364 246.564 234.781 246.75L298.023 274.955C300.088 252.598 302.356 235.984 304.825 225.114ZM297.873 276.584L297.872 276.586L297.873 276.585V276.584ZM296.756 277.784L233.518 249.58C227.701 246.988 223.362 246.463 220.379 247.291C218.715 247.753 217.492 248.654 216.694 249.847C215.87 251.08 215.467 252.654 215.47 254.408C215.476 258.024 217.182 262.324 220.449 266.108L265.565 318.356C276.432 302.038 286.832 288.514 296.756 277.784ZM263.17 320.327L218.103 268.137C217.672 267.637 217.265 267.128 216.881 266.612C212.95 267.833 209.499 269.128 206.529 270.5C203.731 271.793 201.363 273.15 199.426 274.57L199.475 274.775L214.893 340.516L263.17 320.327ZM211.777 340.838L196.45 275.479C195.034 269.437 192.766 265.474 190.202 263.359C188.793 262.196 187.305 261.611 185.846 261.567C184.391 261.523 182.92 262.015 181.541 263.001C179.137 264.722 177.042 267.909 175.761 272.385L158.778 331.721L211.777 340.838ZM155.93 330.377L172.771 271.535C172.995 270.755 173.242 270.007 173.51 269.292C170.774 266.758 168.117 264.503 165.541 262.528C163.097 260.654 160.728 259.033 158.436 257.666L133.294 283.136C132.808 282.098 132.314 281.07 131.809 280.057L157.081 254.63C160.083 251.608 161.565 248.654 161.884 246.042C162.102 244.254 161.766 242.627 161.001 241.265C160.229 239.891 159.011 238.764 157.476 237.991C155.204 236.846 152.239 236.471 148.953 237.18L106.331 246.393C105.31 245.502 104.273 244.631 103.217 243.785L147.377 234.342C148.338 230.748 149.073 227.224 149.582 223.772C150.078 220.414 150.358 217.149 150.421 213.979L150.223 213.899L107.212 196.218C107.622 195.329 108.043 194.446 108.473 193.566L151.389 211.02C155.09 212.525 158.317 212.791 160.864 212.132C162.681 211.661 164.153 210.713 165.193 209.411H165.2C166.247 208.1 166.875 206.407 166.993 204.458C167.171 201.531 166.209 198.05 163.83 194.395L137.659 154.197C138.468 153.471 139.286 152.759 140.113 152.061L166.431 192.707C166.806 193.283 167.151 193.858 167.466 194.429C170.912 193.167 174.107 191.918 177.048 190.681C179.946 189.463 182.621 188.244 185.07 187.025C185.069 186.873 185.069 186.72 185.071 186.566L185.742 130.907C173.892 135.794 162.21 140.221 150.693 144.187C197.319 113.71 265.217 120.016 303.71 162.231C328.614 189.543 340.057 228.561 331.818 264.526C322.871 303.574 293.669 333.887 256.617 346.372C240.601 351.768 231.684 351.07 215.697 352.562C198.572 354.161 187.296 369.23 197.074 385.352C177.45 378.873 161.998 371.209 150.72 362.361C149.845 346.424 147.942 331.829 145.013 318.57C146.066 320.742 152.513 327.381 155.93 330.377ZM188.845 130.541L188.169 186.603C188.126 190.309 189.182 193.244 190.866 195.234C191.974 196.545 193.36 197.444 194.877 197.875C196.394 198.306 198.052 198.273 199.703 197.72C202.224 196.877 204.749 194.834 206.809 191.4L239.931 136.16H239.937C219.485 134.821 202.451 132.941 188.845 130.541ZM242.829 137.356L210.186 191.797L224.941 202.893C225.298 202.65 225.668 202.424 226.049 202.215L282.969 171.018C263.902 155.712 250.522 144.492 242.829 137.356ZM284.816 173.546L227.543 204.936C224.929 206.368 223.007 208.856 222.139 211.575C221.604 213.247 221.474 215.003 221.833 216.644C222.181 218.234 223.002 219.721 224.378 220.911C226.416 222.672 229.674 223.824 234.426 223.817C246.202 223.797 257.991 223.634 269.791 223.33C281.342 223.032 292.928 222.597 304.544 222.023C295.191 200.104 288.618 183.944 284.816 173.546ZM195.36 228.594C195.36 230.377 194.636 231.992 193.468 233.16C192.299 234.328 190.684 235.052 188.9 235.052C187.116 235.052 185.501 234.328 184.332 233.16C183.163 231.992 182.44 230.377 182.44 228.594C182.44 226.811 183.163 225.197 184.332 224.028C185.501 222.86 187.116 222.137 188.9 222.137C190.684 222.137 192.299 222.86 193.468 224.028C194.636 225.197 195.36 226.811 195.36 228.594ZM191.268 230.962C191.874 230.356 192.249 229.519 192.249 228.594C192.249 227.669 191.874 226.832 191.268 226.226C190.663 225.621 189.825 225.246 188.9 225.246C187.975 225.246 187.137 225.621 186.531 226.226C185.925 226.832 185.55 227.669 185.55 228.594C185.55 229.519 185.925 230.356 186.531 230.962C187.137 231.567 187.975 231.942 188.9 231.942C189.825 231.942 190.663 231.567 191.268 230.962ZM168.793 197.241C169.824 199.864 170.229 202.372 170.091 204.641C169.934 207.235 169.069 209.525 167.62 211.339L167.624 211.342C166.166 213.165 164.131 214.487 161.642 215.131C159.291 215.74 156.536 215.741 153.495 214.977C153.398 218.009 153.118 221.091 152.657 224.222C152.197 227.336 151.554 230.522 150.729 233.778C153.79 233.522 156.585 234.069 158.873 235.221C160.964 236.275 162.634 237.832 163.711 239.747C164.794 241.675 165.272 243.949 164.97 246.419C164.627 249.226 163.267 252.289 160.624 255.365C162.836 256.716 165.104 258.283 167.425 260.062C169.836 261.911 172.312 263.994 174.85 266.309C176.211 263.756 177.889 261.792 179.731 260.474C181.662 259.092 183.782 258.405 185.932 258.47C188.078 258.535 190.211 259.349 192.171 260.966C194.691 263.045 196.939 266.483 198.538 271.399C200.447 270.099 202.678 268.861 205.228 267.682C208.111 266.351 211.408 265.094 215.119 263.911C213.31 260.707 212.376 257.385 212.372 254.408C212.368 252.047 212.942 249.881 214.118 248.123C215.32 246.324 217.125 244.977 219.553 244.303C222.356 243.525 226.015 243.67 230.548 245.12L232.686 226.867C228.021 226.601 224.638 225.234 222.349 223.255C220.427 221.593 219.281 219.52 218.795 217.3C218.32 215.13 218.488 212.823 219.186 210.639C219.85 208.563 220.998 206.593 222.532 204.956L208.534 194.43C206.232 197.697 203.48 199.726 200.687 200.66C198.421 201.418 196.134 201.46 194.033 200.863H194.027C191.924 200.265 190.012 199.031 188.496 197.239C186.992 195.461 185.882 193.132 185.375 190.336C183.21 191.382 180.836 192.449 178.251 193.536C175.345 194.757 172.192 195.992 168.793 197.241Z" fill="#999999"/>
<path fill-rule="evenodd" clip-rule="evenodd" d="M155.503 414.873C147.932 332.921 114.234 279.159 53.1968 253.586C66.3744 167.681 123.09 92.8767 209.328 70.5585C355.612 32.7007 482.478 144.719 464.945 286.081C449.183 413.157 326.582 475.64 208.833 440.918C189.794 435.304 171.949 426.566 155.503 414.873ZM151.079 383.251C190.712 411.184 235.181 421.12 284.485 413.057C352.436 401.949 408.101 346.47 417.065 273.468C433.216 141.946 300.148 48.2175 177.747 100.338C118.977 125.363 82.6182 174.689 68.6711 248.315C118.947 271.204 146.417 316.183 151.079 383.251Z" fill="black"/>
<path fill-rule="evenodd" clip-rule="evenodd" d="M151.079 383.25C149.455 311.521 125.645 264.951 79.6494 243.539C89.4484 184.096 118.605 142.183 167.119 117.8C229.896 86.2492 296.529 98.5345 343.698 146.447C384.784 188.183 396.956 250.594 375.342 302.21C345.531 373.398 272.203 404.862 200.362 386.007C206.81 367.859 223.514 369.913 238.672 368.828C285.296 365.493 321.178 341.69 345.564 294.393C383.114 212.002 323.925 120.12 231.772 114.41C158.835 109.891 99.9596 164.754 89.3111 238.91C131.597 266.049 152.186 314.162 151.079 383.25Z" fill="black"/>
<path fill-rule="evenodd" clip-rule="evenodd" d="M126.994 95.5248C226.432 11.6599 374.06 16.7521 463.784 114.58C521.835 177.872 547.616 270.295 512.529 352.072C449.934 497.956 286.859 511.921 156.734 447.067C152.136 354.88 111.321 293.186 34.2893 261.984C44.4976 196.923 77.8189 136.999 126.994 95.5248ZM156.927 459.387C279.961 549.661 492.999 550.474 569.158 402.414C603.825 335.021 600.73 245.834 573.525 178.09C525.856 59.3867 401.817 -18.1278 260.714 3.66861C121.978 25.5158 28.3127 138.135 5.45361 273.726C88.4988 306.157 138.99 368.044 156.927 459.387Z" fill="black"/>
</svg>
