<?xml version="1.0" encoding="UTF-8"?>
<!DOCTYPE svg PUBLIC "-//W3C//DTD SVG 1.1//EN" "http://www.w3.org/Graphics/SVG/1.1/DTD/svg11.dtd">
<!-- Creator: CorelDRAW -->
<svg xmlns="http://www.w3.org/2000/svg" xml:space="preserve" width="200mm" height="200mm" version="1.1" style="shape-rendering:geometricPrecision; text-rendering:geometricPrecision; image-rendering:optimizeQuality; fill-rule:evenodd; clip-rule:evenodd"
viewBox="0 0 20000 20000"
 xmlns:xlink="http://www.w3.org/1999/xlink"
 xmlns:xodm="http://www.corel.com/coreldraw/odm/2003">
 <defs>
  <style type="text/css">
   <![CDATA[
    .str0 {stroke:#999999;stroke-width:100;stroke-miterlimit:22.9256}
    .fil1 {fill:none}
    .fil2 {fill:#999999}
    .fil0 {fill:white}
   ]]>
  </style>
 </defs>
 <g id="Слой_x0020_1">
  <metadata id="CorelCorpID_0Corel-Layer"/>
  <g id="_2225028853728">
   <path class="fil0" d="M4355 9339.65c1012.88,661.44 1570.05,1917.15 1671.5,3767.14 342.35,268.7 811.35,501.43 1407.01,698.17 -296.8,-489.56 45.48,-947.17 565.27,-995.72 485.27,-45.31 755.93,-24.1 1242.09,-187.98 1124.66,-379.11 2011.06,-1299.62 2282.61,-2485.39 250.1,-1092.16 -97.26,-2277.03 -853.18,-3106.4 -1375.39,-1509.05 -3987.8,-1507.43 -5327.53,48.99 -561.08,651.83 -892.41,1403.78 -987.77,2261.19z"/>
   <path class="fil0" d="M7533.31 13824.74c195.73,-551.12 702.77,-488.75 1162.88,-521.69 1415.19,-101.28 2504.35,-824.11 3244.55,-2260.36 1139.78,-2501.97 -656.84,-5292.17 -3454.01,-5465.56 -2213.89,-137.23 -4000.98,1528.79 -4324.2,3780.7 1283.53,824.13 1908.48,2285.19 1874.88,4383.16 1203,848.25 2552.79,1149.97 4049.37,905.14 2062.53,-337.32 3752.17,-2022.04 4024.28,-4238.9 490.25,-3993.94 -3548.88,-6840.19 -7264.2,-5257.46 -1783.87,759.97 -2887.49,2257.85 -3310.84,4493.63 1526.08,695.09 2359.87,2060.96 2501.39,4097.59 -49.3,-2178.18 -772.02,-3592.37 -2168.14,-4242.58 297.42,-1805.11 1182.43,-3077.89 2655.01,-3818.34 1905.53,-958.09 3928.08,-585.02 5359.8,869.93 1247.15,1267.39 1616.6,3162.65 960.52,4730.07 -904.85,2161.75 -3130.62,3117.21 -5311.29,2544.67zm-3178.31 -4485.26c1012.88,661.44 1570.05,1917.15 1671.5,3767.14 342.35,268.7 811.35,501.43 1407.01,698.17 -296.8,-489.56 45.48,-947.17 565.27,-995.72 485.27,-45.31 755.93,-24.1 1242.09,-187.98 1124.66,-379.11 2011.06,-1299.62 2282.61,-2485.39 250.1,-1092.16 -97.26,-2277.03 -853.18,-3106.4 -1375.39,-1509.05 -3987.8,-1507.43 -5327.53,48.99 -561.08,651.83 -892.41,1403.78 -987.77,2261.19z"/>
   <path class="fil0" d="M6209.04 15678.91c3949.79,1969.42 8899.7,1545.36 10799.68,-2884.7 1065.02,-2483.31 282.46,-5289.93 -1479.58,-7211.93 -2723.46,-2970.71 -7204.49,-3125.35 -10222.8,-578.63 -1492.65,1259.45 -2504.08,3079.15 -2813.93,5054.86 2338.19,947.53 3577.06,2820.99 3716.63,5620.4zm-37.36 -977.63c-229.79,-2488.65 -1252.65,-4121.25 -3105.36,-4897.83 399.99,-2608.66 2121.52,-4880.24 4739.17,-5557.98 4440.23,-1149.62 8291.09,2252.03 7758.88,6544.77 -478.43,3858.92 -4199.82,5756.35 -7773.91,4701.94 -577.9,-170.49 -1119.56,-435.85 -1618.78,-790.9z"/>
   <g>
    <path class="fil1 str0" d="M10715.31 8891.16c-715.47,35.62 -1431.7,54.07 -2148.04,55.35 -560.98,0.81 -512.99,-507.42 -231.59,-661.73 1163.24,-637.82 1744.86,-956.73 1744.86,-956.73"/>
    <path class="fil1 str0" d="M8787.2 6241.01c-566.06,944.48 -905.35,1510.55 -1017.82,1698.21 -232.04,387.11 -658.17,250.54 -653.18,-170.39 13.75,-1140.2 20.62,-1710.32 20.62,-1710.32"/>
    <path class="fil1 str0" d="M5665.55 6753.51c438.55,673.94 704.67,1082.9 798.37,1226.88 260.24,400.05 2.71,752.18 -434.8,574.18 -870.32,-354.11 -1305.48,-531.17 -1305.48,-531.17"/>
    <path class="fil1 str0" d="M4634.21 9546.48c734.75,-158.89 1177.66,-254.65 1328.7,-287.32 373.66,-80.7 635.92,260.9 290.06,609.19 -519.02,522.4 -778.53,783.62 -778.53,783.62"/>
    <path class="fil1 str0" d="M6224.34 12168.13c280.19,-979.38 452.49,-1581.62 516.88,-1806.7 137.21,-479.62 575.23,-518.96 719.26,96.17 313.19,1336.06 469.79,2004.11 469.79,2004.11"/>
    <path class="fil1 str0" d="M9485.44 11811.07c-758.94,-879.3 -1218.28,-1411.5 -1378.01,-1596.55 -306.73,-355.45 -191.91,-862.56 451.45,-575.67 1289.49,575.35 1934.26,863.02 1934.26,863.02"/>
    <path class="fil1 str0" d="M7769.38 7939.22c339.92,255.73 509.89,383.6 509.89,383.6"/>
    <path class="fil1 str0" d="M8567.27 8946.51c-51.79,442.46 -77.69,663.69 -77.69,663.69"/>
    <path class="fil1 str0" d="M8053.33 10144.03c-269.55,81.05 -470.1,173.73 -601.68,278.04"/>
    <path class="fil1 str0" d="M6773.94 10267.97c-184.98,-174 -358.64,-307.21 -520.97,-399.62"/>
    <path class="fil1 str0" d="M5962.91 9259.16c66.97,-241.94 100.96,-472.31 101.94,-691.08"/>
    <path class="fil1 str0" d="M6511.97 8065.39c240.88,-86.93 442.62,-171.77 605.2,-254.53"/>
    <circle class="fil2 str0" transform="matrix(2.49341E-14 0.944242 -0.944243 2.49341E-14 7185.4 9044.54)" r="157.67"/>
   </g>
   <path class="fil2" d="M5853.26 11776.84c88.92,402.62 146.7,845.82 173.24,1329.78 342.35,268.7 811.35,501.43 1407.01,698.17 -296.8,-489.56 45.48,-947.17 565.27,-995.72 485.27,-45.31 755.93,-24.1 1242.09,-187.98 1124.66,-379.11 2011.06,-1299.62 2282.61,-2485.39 250.1,-1092.16 -97.26,-2277.03 -853.18,-3106.4 -1168.4,-1281.95 -3229.36,-1473.44 -4644.6,-547.95 364.86,-125.71 735.23,-266.67 1111.12,-422.84 431.92,79.14 982.05,139.98 1650.38,182.5 231.67,219.03 662.78,581.38 1293.34,1087.04 114.9,320.09 326.48,841.12 634.77,1563.11 -81.14,335.87 -155.2,872.78 -222.17,1610.71 -319.69,340.24 -655.58,776.64 -1007.7,1309.2 0,0 -518.39,216.89 -1555.17,650.64 0,0 -568.64,-97.86 -1705.93,-293.58 -103.28,-76.68 -226.92,-207.02 -370.93,-390.98l-0.15 -0.31z"/>
  </g>
 </g>
</svg>
