<?xml version="1.0" encoding="UTF-8"?>
<!DOCTYPE svg PUBLIC "-//W3C//DTD SVG 1.1//EN" "http://www.w3.org/Graphics/SVG/1.1/DTD/svg11.dtd">
<!-- Creator: CorelDRAW -->
<svg xmlns="http://www.w3.org/2000/svg" xml:space="preserve" width="200mm" height="200mm" version="1.1" style="shape-rendering:geometricPrecision; text-rendering:geometricPrecision; image-rendering:optimizeQuality; fill-rule:evenodd; clip-rule:evenodd"
viewBox="0 0 20000 20000"
 xmlns:xlink="http://www.w3.org/1999/xlink"
 xmlns:xodm="http://www.corel.com/coreldraw/odm/2003">
 <defs>
  <style type="text/css">
   <![CDATA[
    .fil0 {fill:white}
   ]]>
  </style>
 </defs>
 <g id="Слой_x0020_1">
  <metadata id="CorelCorpID_0Corel-Layer"/>
  <path class="fil0" d="M2089.51 10311.14l15810.8 0 0.01 -119.05 -15810.79 0.01 -0.02 119.04zm12449.7 1105.07l101.69 0 -0.02 -685.04 -101.69 -0.01 0.02 685.05zm-9425.26 -592.56l280.41 -0.02 0.02 591.3 102.03 1.28c-0.03,-133.44 -5.56,-482.71 0.79,-591.9l280.91 -0.67 0.01 -92.48 -664.18 0 0.01 92.49zm12334.59 -10.86l161.58 347.21 -327.87 -1.14 166.29 -346.07zm-210.06 434.68l409.21 -0.05c18.67,8.8 35.4,63.4 45.32,83.29 10.74,21.53 31.95,64.16 38.69,85.52l112.73 -0.35 -341.71 -684.78 -107.98 -0.19 -334.07 684.86 99.91 -0.09 77.9 -168.21zm-9066.95 -515.58c-5.76,41.87 -1.41,428.96 -1.31,505.82 0.1,83.59 3.04,152.36 81.08,171.67 47.49,11.75 443.1,11.77 490.48,-0.33 75.14,-19.18 78.53,-86.5 78.61,-171.34 0.16,-168.84 -0.21,-337.69 0,-506.55l-100.85 0.02 -0.8 589.54 -445.27 -0.48c-10.92,-77 10.14,-533.41 -3.99,-589.19l-97.95 0.84zm3187.68 684.34c127.63,-0.17 396.88,13.64 502.95,-19.43 264.11,-82.34 264.6,-566.37 -1.46,-646.9 -108.82,-32.93 -370.95,-18.42 -501.38,-18.8l-0.11 685.13zm-9157.47 -592.58l432.75 -0.02 0.5 99.62 87.39 -29.59c-0.98,-189.36 -88.85,-162.54 -257.33,-162.54 -71.33,0 -143.04,-0.74 -214.32,0.01 -69.02,0.73 -115.5,13.3 -132.18,75.32 -12.57,46.74 -12.21,149.6 -6.4,199.41 8.22,70.37 32.99,98.79 102.99,106.75 104.41,11.87 335.27,-8.37 421.95,3.17l-0.96 204.96 -455.6 -0.46 -0.74 -109.63 -92.94 23.74c-20.46,204.83 93.58,181.82 257.7,181.82 72.9,0 145.79,-0.05 218.68,0.01 72.06,0.06 131.01,-2.43 153.76,-65.02 16.28,-44.77 14.92,-155.17 11.54,-207.37 -4.8,-74.19 -24.12,-113.78 -93.67,-125.08 -50.62,-8.23 -358.39,-3.67 -434.58,-3.68l1.46 -191.42zm9259.53 497.15c267.2,0.12 491.71,45.21 493.81,-248.21 2.12,-295.42 -238.05,-249.06 -492.64,-248.94l-1.17 497.15zm-624.23 -1367.98l227.45 -0.55 -0.49 -1355.95 -226.45 -0.02 -0.49 17.25 0 566.78 -0.02 772.49zm-5821.57 -1173.86l620.27 0.11 0.01 1173.46 227.14 0.23 0.28 -1172.58 620.02 -1.15 -0.72 -182.76 -1467 1.8 0 180.89zm-2344.68 664.68c9.12,-26.26 32.17,-61.57 45.01,-88.45l269.42 -516.12c8.29,-15.32 14.96,-27.76 23.33,-43.38 6.85,-12.77 13.59,-31.82 24.4,-39.9l362.88 688.37 -725.04 -0.52zm-267.77 508.98c13.41,-41.93 63.56,-127.9 86.23,-172.27 15.04,-29.44 29.04,-56.92 43.72,-85.62 15.07,-29.48 29.2,-76.66 48.11,-76.65l909.86 0.35 172.66 334.35 249.32 0.04 -658.5 -1186.91c-15.53,-28.55 -31.41,-55.31 -47.76,-86.17 -14.04,-26.5 -34.54,-57.38 -45.87,-83.34l-236.07 -0.12c-16.41,0 -20.13,20.36 -29.57,36.81l-69.41 126.95c-29.39,57.42 -61.72,116.09 -93.07,170.19 -64.61,111.5 -121.02,227.37 -186.04,340.56l-370.88 681.37 227.27 0.46zm10348.74 -1356.36c-4.46,83.81 -0.64,177.83 -0.65,262.75l0.04 776.54c2.38,339.17 158.61,317.14 460.46,317.23 136.63,0.04 679.54,7.13 773.02,-8.03 177.31,-28.75 202.07,-141.06 203.14,-313.66 1.06,-172.44 0.04,-345.22 0.04,-517.7 0,-169.03 5.77,-348.37 -0.41,-516.99l-222.39 -0.12 -0.02 1169.24 -986.61 0.03 -0.41 -1169.16 -226.21 -0.13zm3999.65 1142.18c6.74,-16.23 25.39,-39.36 37.09,-56.06 12.87,-18.35 24.59,-36.77 37.98,-55.81 25.47,-36.19 51.72,-73.64 76.55,-110.8l380.73 -556.63c22.33,-33.39 43.46,-91.93 63.65,-117.73 1.92,45.48 -2.82,90.07 -6.12,134.72 -3.36,45.54 -2.26,91.59 -2.26,137.26l0 839.46 204.97 -1.16 -0.39 -1355.31 -205.06 -0.1c-148.07,218.75 -312.51,442.72 -460.83,662.05l-154 219.7c-13.61,-9.85 -70.44,-91.09 -84.7,-110.19l-575.82 -771.54 -183.51 -0.04 0.01 1356.59 191.61 -1.16c-0.85,-185.65 0,-371.47 -0.06,-557.14 -0.03,-127.78 3.25,-294.79 -0.57,-419.63 -1.16,-37.88 -10.21,-92.76 -5.93,-128.02 22.91,55.72 33.84,80.5 64.42,124.72 80.31,116.11 157.6,216.55 240.68,330.7 27.34,37.58 54.15,74.98 81.42,110.51l163.17 220.54c88.16,121.37 62.58,105.25 136.97,105.07zm-8673.52 -963.84c193.86,-0.17 387.74,0.06 581.6,-0.01 341.89,-0.12 342.13,-23.2 342.09,236.16 -0.01,96.34 17.4,194.07 -63.07,225.53 -48.27,18.87 -215.75,11.58 -279.02,11.58 -194.05,0 -388.13,0.29 -582.2,-0.02l0.6 -473.24zm667.1 652.26c220.18,-12.91 440.16,43.02 478.75,-195.82 13.73,-84.98 4.95,-238.57 4.99,-331.87 0.1,-279.16 -103.21,-302.89 -368.41,-302.89l-1010.14 0 -0.01 1356.63 227.12 -2.27 0.58 -524.48c76.35,0.07 152.71,0.01 229.06,0.01 218.07,0.02 141.42,-20.12 257.75,85.52l114.93 108.26c28.78,25.79 336.71,325.95 347.99,330.36 15.51,6.05 309.33,3.44 331.81,1.42 -47.13,-47 -312.29,-266.06 -384.78,-327.92l-154.17 -131.37c-24.87,-22.8 -51.33,-41.08 -75.47,-65.58z"/>
 </g>
</svg>
